<?xml version="1.0" standalone="no"?>
<!DOCTYPE svg PUBLIC "-//W3C//DTD SVG 20010904//EN"
 "http://www.w3.org/TR/2001/REC-SVG-20010904/DTD/svg10.dtd">
<svg version="1.0" xmlns="http://www.w3.org/2000/svg"
 width="340.000000pt" height="340.000000pt" viewBox="0 0 340.000000 340.000000"
 preserveAspectRatio="xMidYMid meet">
<metadata>
Created by potrace 1.14, written by Peter Selinger 2001-2017
</metadata>
<g transform="translate(0.000000,340.000000) scale(0.100000,-0.100000)"
fill="#000000" stroke="none">
<path d="M1559 3386 c-2 -2 -33 -7 -69 -10 -84 -9 -211 -38 -330 -78 -268 -88
-502 -239 -704 -456 -54 -58 -176 -216 -176 -228 0 -4 -6 -15 -14 -23 -25 -27
-123 -231 -155 -321 -36 -102 -68 -225 -76 -300 -4 -30 -10 -59 -13 -64 -10
-16 -10 -317 -1 -386 21 -150 26 -180 48 -260 165 -593 631 -1051 1216 -1196
105 -26 123 -29 245 -44 73 -8 330 -6 380 4 14 3 45 7 70 10 108 12 303 74
445 140 360 168 674 496 828 867 102 243 137 435 132 711 -2 80 -5 150 -8 155
-3 4 -8 33 -11 63 -7 62 -52 234 -85 325 -22 59 -99 221 -123 260 -119 187
-175 255 -324 395 -222 208 -550 367 -858 416 -21 3 -48 8 -60 11 -24 6 -352
14 -357 9z"/>
</g>
</svg>
